<?xml version="1.0" encoding="UTF-8" standalone="no"?>
<!-- Created with Inkscape (http://www.inkscape.org/) -->

<svg
   width="210mm"
   height="297mm"
   viewBox="0 0 210 297"
   version="1.1"
   id="svg5"
   xml:space="preserve"
   inkscape:version="1.2.1 (9c6d41e410, 2022-07-14)"
   sodipodi:docname="folder.svg"
   xmlns:inkscape="http://www.inkscape.org/namespaces/inkscape"
   xmlns:sodipodi="http://sodipodi.sourceforge.net/DTD/sodipodi-0.dtd"
   xmlns="http://www.w3.org/2000/svg"
   xmlns:svg="http://www.w3.org/2000/svg"><sodipodi:namedview
     id="namedview7"
     pagecolor="#ffffff"
     bordercolor="#666666"
     borderopacity="1.0"
     inkscape:showpageshadow="2"
     inkscape:pageopacity="0.0"
     inkscape:pagecheckerboard="0"
     inkscape:deskcolor="#d1d1d1"
     inkscape:document-units="mm"
     showgrid="false"
     inkscape:zoom="0.32346812"
     inkscape:cx="-381.7996"
     inkscape:cy="1589.0283"
     inkscape:window-width="1908"
     inkscape:window-height="1293"
     inkscape:window-x="1131"
     inkscape:window-y="31"
     inkscape:window-maximized="0"
     inkscape:current-layer="layer1" /><defs
     id="defs2" /><g
     inkscape:label="Layer 1"
     inkscape:groupmode="layer"
     id="layer1"><path
       id="rect1296-2"
       style="opacity:0.5;fill:#ffd42a;stroke-width:0.216311;paint-order:markers stroke fill;stop-color:#000000"
       d="m -1318.0098,79.016402 c -7.9789,1.94414 -5.9041,7.6468 -6.2558,6.78516 -0,48.014268 -0,96.029508 0.01,144.044918 a 6.2567973,6.2567973 0 0 0 0.023,0.54101 c 0.014,0.16281 -0.2849,2.65092 1.6621,5.38672 0.476,0.79201 1.233,1.82895 3.1562,2.50977 2.3262,0.82346 5.0488,-0.20674 6.0723,-1.01367 2.047,-1.61387 1.8118,-2.17684 2,-2.57227 0.1674,-0.35195 0.2191,-0.48475 0.2285,-0.50976 a 6.2567973,6.2567973 0 0 0 0.1094,-0.14649 c 1.9246,-3.65694 3.3036,-7.17258 4.7617,-10.24219 a 6.2567973,6.2567973 0 0 0 0.047,-0.0977 c 10.25,-22.58141 20.5146,-45.1802 30.5957,-67.87891 0.7694,-0.52505 1.9344,-0.94489 3.2871,-0.84765 a 6.2567973,6.2567973 0 0 0 0.4492,0.0156 h 155.5137 a 6.2567973,6.2567973 0 0 0 6.2559,-6.25586 v -28.26953 a 6.2567973,6.2567973 0 0 0 -6.254,-6.25586 c -37.0224,-0.0108 -74.0383,0.0233 -111.0468,-0.0195 a 6.2567973,6.2567973 0 0 0 -0.084,0 c -1.7416,0.0212 -2.4243,-0.17206 -2.3262,-0.1211 a 6.2567973,6.2567973 0 0 0 -0.2227,-0.10937 c -1.0221,-0.48032 -2.0419,-2.11814 -2.0449,-2.76953 a 6.2567973,6.2567973 0 0 0 0,-0.004 c -0.012,-2.34775 0.015,-4.89271 -0,-7.43554 v -0.0449 c -0,-6.144218 -0.01,-12.289718 -0.01,-18.435538 a 6.2567973,6.2567973 0 0 0 -6.2558,-6.25391 z m 51.1895,83.902338 c -4.3579,-0.38969 -6.4383,5.26448 -5.8418,3.98829 -15.6894,34.70467 -30.7633,69.61159 -46.3281,104.22851 a 6.2567973,6.2567973 0 0 0 5.705,8.82227 h 203.1309 a 6.2567973,6.2567973 0 0 0 5.7656,-3.83008 c 14.6599,-34.84231 29.3196,-69.68458 43.9785,-104.52734 a 6.2567973,6.2567973 0 0 0 -5.7656,-8.68165 z" /><path
       style="fill:#ffffff;stroke-width:0.264583"
       d="m -599.88052,150.23688 c -23.33486,-2.19156 -43.77807,-14.40092 -56.47187,-33.72688 -1.24609,-1.89714 -2.92047,-4.7234 -3.72083,-6.2806 l -1.45521,-2.83126 -52.68211,-0.003 c -34.47855,-0.002 -53.17457,-0.096 -54.10729,-0.27154 -3.29621,-0.6205 -6.02563,-2.72666 -7.46147,-5.75766 l -0.84288,-1.779258 V -0.55836177 -100.70315 l 0.60392,-1.49352 c 1.18463,-2.92972 2.91035,-4.65543 5.84006,-5.84007 l 1.49352,-0.60391 h 40.61354 40.61354 l 1.52048,0.61399 c 2.12146,0.85669 4.21297,2.84386 5.28617,5.02246 l 0.86627,1.75855 0.13229,7.018128 0.13229,7.01812 60.98646,0.1323 60.98646,0.13229 1.73232,0.8209 c 2.43448,1.15364 3.53007,2.21803 4.68222,4.54887 l 0.99379,2.01047 0.0733,17.79277 0.0733,17.792761 12.22984,0.0901 c 13.64064,0.10048 13.3768,0.0675 15.91664,1.99224 1.71729,1.30142 3.4519,3.86081 3.83859,5.6638 0.16645,0.77606 0.36635,2.48258 0.44423,3.79226 l 0.14159,2.38125 -8.2228,28.5202892 c -4.52253,15.6861598 -8.2228,28.6482098 -8.2228,28.8045698 0,0.15636 0.66128,1.16292 1.46951,2.2368 7.69359,10.22239 12.75074,23.03386 14.45302,36.614378 0.50965,4.06599 0.43085,14.379366 -0.14152,18.520836 -0.8877,6.42305 -2.3751,12.34874 -4.4372,17.677468 -9.90227,25.58866 -32.32202,43.4153 -59.63026,47.41388 -4.31314,0.63154 -13.58337,0.89723 -17.72709,0.50806 z m 13.3684,-21.69114 c 12.30522,-1.52107 23.21617,-6.78645 31.75303,-15.32331 8.51438,-8.51439 13.80624,-19.480198 15.32331,-31.753018 0.40176,-3.25018 0.3398,-10.34971 -0.12099,-13.864866 -0.7619,-5.81204 -2.66792,-12.107028 -5.19743,-17.165388 -2.331,-4.66139 -5.47191,-9.18088 -7.36013,-10.59057 -0.71827,-0.53624 -1.77833,-1.67059 -2.35568,-2.52077 -1.20549,-1.77516 -3.09106,-3.56656 -6.19478,-5.88538 -15.91049,-11.88687 -38.12476,-13.91588 -56.24677,-5.13747 -17.02373,8.24641 -28.00526,24.10574 -29.92219,43.213138 -1.3588,13.544106 2.4327,27.284626 10.51599,38.110294 1.90764,2.55483 6.47732,7.28037 9.05287,9.36163 7.32943,5.92279 16.24885,9.82899 25.79687,11.29758 3.66522,0.56375 11.40311,0.6973 14.9559,0.25813 z m -10.0798,-10.91865 c -3.91623,-1.10096 -6.55326,-4.31506 -7.11955,-8.67756 -0.13956,-1.07512 -0.25742,-6.74704 -0.26192,-12.604248 l -0.008,-10.64948 h -11.36406 c -12.31497,0 -13.20569,-0.0793 -15.70835,-1.39854 -3.55284,-1.87283 -5.45458,-5.66235 -5.1354,-10.2331 0.32678,-4.679686 2.74894,-7.969616 6.88628,-9.353386 1.54208,-0.51576 2.35609,-0.55512 13.46229,-0.65104 l 11.82096,-0.1021 0.0976,-11.818928 c 0.0919,-11.13208 0.1296,-11.91433 0.64902,-13.46026 1.39136,-4.14106 4.67723,-6.55958 9.3559,-6.88629 4.57075,-0.31918 8.36027,1.58257 10.2331,5.13541 1.31924,2.50265 1.39855,3.39337 1.39855,15.70835 v 11.364058 l 10.64947,0.008 c 5.85722,0.005 11.54245,0.12306 12.63386,0.26347 3.75287,0.48283 6.63844,2.52242 8.15964,5.76744 0.64452,1.374876 0.7039,1.780546 0.7039,4.808836 0,3.09131 -0.0501,3.41584 -0.76754,4.96941 -0.97592,2.11337 -3.2307,4.26389 -5.37487,5.12634 -1.5133,0.60869 -1.66791,0.61654 -13.753,0.69837 l -12.2225,0.0828 -0.0828,12.2225 c -0.0818,12.085088 -0.0897,12.239698 -0.69837,13.752998 -0.86688,2.15517 -3.01492,4.4028 -5.12634,5.36399 -1.43607,0.65374 -2.03994,0.76659 -4.44024,0.82973 -1.68575,0.0443 -3.25364,-0.0606 -3.98745,-0.26689 z m -71.53139,-33.293918 c -0.0994,-0.74945 -0.28424,-3.19118 -0.41072,-5.42608 -1.04596,-18.481786 4.72039,-36.726214 16.19259,-51.232544 2.6671,-3.37249 8.53088,-9.25455 11.84738,-11.88433 10.04135,-7.9621398 21.8362,-13.2415098 34.39584,-15.39553977 8.65442,-1.48427003 19.63696,-1.33442 28.13578,0.3839 8.33322,1.68483997 16.91269,4.96767997 23.69887,9.06811997 1.36942,0.8274498 2.53816,1.4561498 2.5972,1.3971098 0.059,-0.059 2.12714,-7.4118798 4.59578,-16.3396498 2.46864,-8.9277702 4.55243,-16.4408392 4.63064,-16.6957092 0.13532,-0.44094 -4.28398,-0.46017 -91.20661,-0.39687 l -91.34881,0.0665 -13.43617,53.710409 c -7.3899,29.540738 -13.43976,53.799714 -13.44414,53.908854 -0.004,0.10914 18.87879,0.19844 41.96259,0.19844 h 41.97054 z m -75.35251,-122.264123 c 1.20823,-2.71955 4.23156,-5.05363 7.41406,-5.72381 1.01442,-0.21363 23.96724,-0.29526 83.01302,-0.29526 h 81.61093 v -10.845681 -10.84569 l -60.92031,-0.0684 -60.92031,-0.0684 -1.5875,-0.6383 c -2.18019,-0.87662 -4.57829,-3.27849 -5.43853,-5.44711 -0.59485,-1.49956 -0.63497,-1.96494 -0.72422,-8.40052 l -0.0945,-6.81302 h -26.96772 -26.96773 l 0.0233,47.029681 0.0233,47.0296892 5.48886,-21.8281302 c 3.01888,-12.005469 5.74017,-22.393759 6.04731,-23.085089 z"
       id="path410" /><path
       style="fill:#ffffff;stroke-width:0.264583"
       d="m -607.04028,418.01232 c -23.33486,-2.19156 -43.77807,-14.40092 -56.47187,-33.72688 -1.24609,-1.89714 -2.92047,-4.7234 -3.72083,-6.2806 l -1.45521,-2.83125 -52.68211,-0.003 c -34.47855,-0.002 -53.17457,-0.096 -54.10729,-0.27154 -3.29621,-0.6205 -6.02563,-2.72666 -7.46147,-5.75766 l -0.84288,-1.77926 V 267.21708 167.07229 l 0.60392,-1.49352 c 1.18463,-2.92972 2.91035,-4.65543 5.84006,-5.84007 l 1.49352,-0.60391 h 40.61354 40.61354 l 1.52048,0.61399 c 2.12146,0.85669 4.21297,2.84385 5.28617,5.02246 l 0.86627,1.75855 0.13229,7.01813 0.13229,7.01812 60.98646,0.1323 60.98646,0.13229 1.73232,0.8209 c 2.43448,1.15364 3.53007,2.21803 4.68222,4.54887 l 0.99379,2.01047 0.0733,17.79277 0.0733,17.79276 12.22984,0.0901 c 13.64064,0.10048 13.3768,0.0675 15.91664,1.99224 1.71729,1.30142 3.4519,3.86081 3.83859,5.6638 0.16645,0.77606 0.36635,2.48258 0.44423,3.79226 l 0.14159,2.38125 -8.2228,28.52029 c -4.52253,15.68616 -8.2228,28.64821 -8.2228,28.80457 0,0.15636 0.66128,1.16292 1.46951,2.2368 7.69359,10.22239 12.75074,23.03386 14.45302,36.61437 0.50965,4.06599 0.43085,14.37937 -0.14152,18.52084 -0.8877,6.42305 -2.3751,12.34874 -4.4372,17.67747 -9.90227,25.58866 -32.32202,43.4153 -59.63026,47.41388 -4.31314,0.63154 -13.58337,0.89723 -17.72709,0.50806 z m 13.3684,-21.69114 c 12.30522,-1.52107 23.21617,-6.78645 31.75303,-15.3233 8.51438,-8.51439 13.80624,-19.4802 15.32331,-31.75302 0.40176,-3.25018 0.3398,-10.34972 -0.12099,-13.86487 -0.7619,-5.81204 -2.66792,-12.10703 -5.19743,-17.16539 -2.331,-4.66139 -5.47191,-9.18088 -7.36013,-10.59057 -0.71827,-0.53624 -1.77833,-1.67059 -2.35568,-2.52077 -1.20549,-1.77516 -3.09106,-3.56656 -6.19478,-5.88538 -15.91049,-11.88687 -38.12476,-13.91588 -56.24677,-5.13747 -17.02373,8.24641 -28.00526,24.10574 -29.92219,43.21314 -1.3588,13.54411 2.4327,27.28463 10.51599,38.1103 1.90764,2.55483 6.47732,7.28037 9.05287,9.36163 7.32943,5.92279 16.24885,9.82899 25.79687,11.29758 3.66522,0.56375 11.40311,0.6973 14.9559,0.25812 z m -10.0798,-10.91865 c -3.91623,-1.10096 -6.55326,-4.31506 -7.11955,-8.67756 -0.13956,-1.07512 -0.25742,-6.74704 -0.26192,-12.60425 l -0.008,-10.64948 h -11.36406 c -12.31497,0 -13.20569,-0.0793 -15.70835,-1.39854 -3.55284,-1.87282 -5.45458,-5.66235 -5.1354,-10.2331 0.32678,-4.67969 2.74894,-7.96962 6.88628,-9.35339 1.54208,-0.51576 2.35609,-0.55512 13.46229,-0.65104 l 11.82096,-0.1021 0.0976,-11.81892 c 0.0919,-11.13208 0.1296,-11.91433 0.64902,-13.46026 1.39136,-4.14106 4.67723,-6.55958 9.3559,-6.88629 4.57075,-0.31918 8.36027,1.58257 10.2331,5.13541 1.31924,2.50265 1.39855,3.39337 1.39855,15.70835 v 11.36405 l 10.64947,0.008 c 5.85722,0.005 11.54245,0.12306 12.63386,0.26347 3.75287,0.48283 6.63844,2.52242 8.15964,5.76744 0.64452,1.37488 0.7039,1.78055 0.7039,4.80884 0,3.09131 -0.0501,3.41584 -0.76754,4.96941 -0.97592,2.11337 -3.2307,4.26389 -5.37487,5.12634 -1.5133,0.60869 -1.66791,0.61654 -13.753,0.69837 l -12.2225,0.0828 -0.0828,12.2225 c -0.0818,12.08509 -0.0897,12.2397 -0.69837,13.75301 -0.86688,2.15517 -3.01492,4.4028 -5.12634,5.36399 -1.43607,0.65374 -2.03994,0.76659 -4.44024,0.82973 -1.68575,0.0443 -3.25364,-0.0606 -3.98745,-0.26689 z m -71.53139,-33.29392 c -0.0994,-0.74945 -0.28424,-3.19118 -0.41072,-5.42608 -1.04596,-18.48179 4.72039,-36.72621 16.19259,-51.23254 2.6671,-3.37249 8.53088,-9.25455 11.84738,-11.88433 10.04135,-7.96214 21.8362,-13.24151 34.39584,-15.39554 8.65442,-1.48427 19.63696,-1.33442 28.13578,0.3839 8.33322,1.68484 16.91269,4.96768 23.69887,9.06812 1.36942,0.82745 2.53816,1.45615 2.5972,1.39711 0.059,-0.059 2.12714,-7.41188 4.59578,-16.33965 2.46864,-8.92777 4.55243,-16.44084 4.63064,-16.69571 0.13532,-0.44094 -4.28398,-0.46017 -91.20661,-0.39687 l -91.34881,0.0665 -13.43617,53.71041 c -7.3899,29.54073 -13.43976,53.79971 -13.44414,53.90885 -0.004,0.10914 18.87879,0.19844 41.96259,0.19844 h 41.97054 z m -75.35251,-122.26412 c 1.20823,-2.71955 4.23156,-5.05363 7.41406,-5.72381 1.01442,-0.21363 23.96724,-0.29526 83.01302,-0.29526 h 81.61093 v -10.84568 -10.84569 l -60.92031,-0.0684 -60.92031,-0.0684 -1.5875,-0.6383 c -2.18019,-0.87662 -4.57829,-3.27849 -5.43853,-5.44711 -0.59485,-1.49956 -0.63497,-1.96494 -0.72422,-8.40052 l -0.0945,-6.81302 h -26.96772 -26.96773 l 0.0233,47.02968 0.0233,47.02969 5.48886,-21.82813 c 3.01888,-12.00547 5.74017,-22.39376 6.04731,-23.08509 z"
       id="path410-9" /><path
       id="rect585"
       style="fill:#d4aa00;fill-opacity:1;stroke-width:0.1;paint-order:markers stroke fill;stop-color:#000000"
       d="m -1329.3902,63.773084 c -2.757,0 -5.2498,1.145356 -7.1086,3.007052 -0.048,0.0448 -0.094,0.0919 -0.1416,0.13746 -0.053,0.055 -0.1074,0.107674 -0.1592,0.163814 -1.8584,1.858176 -3.0019,4.348162 -3.0019,7.102412 v 0.74362 0.99167 33.458418 1.7353 169.94104 c -0.682,4.65045 0.5536,8.37937 3.0014,10.83758 1.8851,2.04374 4.5038,3.30884 7.4099,3.30884 h 1.1529 0.5818 221.7653 c 6.0351,1e-5 10.8847,-2.99062 12.6912,-7.0559 17.4931,-41.15239 34.2946,-82.60131 52.0377,-123.64671 0.6333,-1.46492 1.1906,-2.98955 1.1906,-4.67517 v -1.73529 c 0,-5.7676 -4.9748,-10.41073 -11.1543,-10.41074 h -44.0201 v -36.56365 -0.99167 -0.74363 c 0,-2.74382 -1.1348,-5.22523 -2.9807,-7.08122 -1.8864,-2.05635 -4.5138,-3.329508 -7.43,-3.329508 h -0.7436 -0.9917 -109.8093 v -12.05043 l -0.036,-0.0357 v -10.9616 -1.73529 c 0,-2.83022 -1.1999,-5.387636 -3.1502,-7.260542 -1.873,-1.950366 -4.4304,-3.150196 -7.2606,-3.150196 h -0.7436 -11.9533 -51.077 -36.3347 -0.9912 z m 12.146,22.556768 h 25.9235 51.6278 v 12.46228 h 0.01 v 10.571968 0.99167 0.74362 c 0,2.74382 1.1347,5.22534 2.9807,7.08122 1.8864,2.05635 4.5139,3.32952 7.4301,3.32952 h 0.7436 0.9917 9.8118 v 0.0134 h 100.0228 v 26.15292 l -155.7709,-5.1e-4 c -3.3363,-1e-5 -6.3128,1.36084 -8.3534,3.51399 l -0,-0.002 -0,0.008 c -11.2826,25.46306 -23.3656,51.95495 -35.4124,78.49909 v -108.1715 h 0 V 99.163652 c 0,-0.0659 0,-0.1313 0.01,-0.19689 h -0.01 z m 50.815,83.902878 h 198.3682 l -43.0883,102.41028 h -200.7944 c 15.3318,-34.06398 30.1061,-68.38091 45.5145,-102.41028 z"
       sodipodi:nodetypes="scccsccccccscccccssccccscsccccccscscccccscccccccscscccccccccccccscccccccc" /><path
       id="rect585-0"
       style="fill:#000000;stroke-width:0.1;paint-order:markers stroke fill;stop-color:#000000"
       d="m -682.52251,-228.23902 v 22.55676 h 63.03026 c 6.17956,0 11.15436,-4.64313 11.15436,-10.41073 v -1.7353 c 0,-5.76758 -4.9748,-10.41073 -11.15436,-10.41073 z"
       sodipodi:nodetypes="ccssssc" /><path
       id="rect1185"
       style="fill:#0088aa;stroke-width:0.107818;paint-order:markers stroke fill;stop-color:#000000"
       d="m -1200.5625,119.42408 -55.7833,54.98658 h 31.5913 v 54.55528 h 48.384 v -54.55528 h 31.5913 z"
       inkscape:transform-center-x="2.8991662"
       inkscape:transform-center-y="-67.647233" /><path
       style="opacity:0.5;fill:#ffd42a;stroke-width:0.216311;paint-order:markers stroke fill;stop-color:#000000"
       d="m -1132.421,432.30885 c -4.3579,-0.38969 -6.4383,5.26448 -5.8418,3.98829 -15.6893,34.70467 -30.7633,69.61159 -46.3281,104.22851 a 6.2567973,6.2567973 0 0 0 5.7051,8.82227 h 203.13085 a 6.2567973,6.2567973 0 0 0 5.76563,-3.83008 c 14.65993,-34.84231 29.31954,-69.68458 43.97851,-104.52734 a 6.2567973,6.2567973 0 0 0 -5.76562,-8.68165 z"
       id="path4433" /><path
       style="opacity:0.5;fill:#1a1a1a;stroke-width:0.216311;paint-order:markers stroke fill;stop-color:#000000"
       d="m -1183.6104,348.40651 c -7.979,1.94414 -5.9041,7.6468 -6.2559,6.78516 -0,48.01427 -0,96.02951 0.01,144.04492 a 6.2567973,6.2567973 0 0 0 0.023,0.54101 c 0.014,0.16281 -0.2848,2.65092 1.6621,5.38672 0.4761,0.79201 1.233,1.82895 3.1563,2.50977 2.3262,0.82346 5.0487,-0.20674 6.0722,-1.01367 2.047,-1.61387 1.8119,-2.17684 2,-2.57227 0.1675,-0.35195 0.2191,-0.48475 0.2286,-0.50976 a 6.2567973,6.2567973 0 0 0 0.1093,-0.14649 c 1.9247,-3.65694 3.3036,-7.17258 4.7618,-10.24219 a 6.2567973,6.2567973 0 0 0 0.047,-0.0977 c 10.2499,-22.58141 20.5146,-45.1802 30.5957,-67.87891 0.7694,-0.52505 1.9343,-0.94489 3.2871,-0.84765 a 6.2567973,6.2567973 0 0 0 0.4492,0.0156 h 155.51366 a 6.2567973,6.2567973 0 0 0 6.25586,-6.25586 v -28.26953 a 6.2567973,6.2567973 0 0 0 -6.25391,-6.25586 c -37.02241,-0.0108 -74.03831,0.0233 -111.04691,-0.0195 a 6.2567973,6.2567973 0 0 0 -0.084,0 c -1.7416,0.0212 -2.4243,-0.17206 -2.3261,-0.1211 a 6.2567973,6.2567973 0 0 0 -0.2227,-0.10937 c -1.0221,-0.48032 -2.0419,-2.11814 -2.0449,-2.76953 a 6.2567973,6.2567973 0 0 0 0,-0.004 c -0.012,-2.34775 0.015,-4.89271 -0,-7.43554 v -0.0449 c -0,-6.14422 -0.01,-12.28972 -0.01,-18.43554 a 6.2567973,6.2567973 0 0 0 -6.2559,-6.25391 z"
       id="rect1296-2-4" /><path
       id="rect585-9"
       style="fill:#ffcc00;fill-opacity:1;stroke-width:0.1;paint-order:markers stroke fill;stop-color:#000000"
       d="m -1194.9909,333.16319 c -2.757,0 -5.2498,1.14536 -7.1086,3.00705 -0.048,0.0448 -0.094,0.0919 -0.1416,0.13746 -0.053,0.055 -0.1074,0.10768 -0.1591,0.16382 -1.8584,1.85817 -3.0019,4.34816 -3.0019,7.10241 v 0.74362 0.99167 33.45842 1.7353 169.94104 c -0.6821,4.65045 0.5536,8.37937 3.0013,10.83758 1.8852,2.04374 4.5038,3.30884 7.4099,3.30884 h 1.1529 0.5819 221.76529 c 6.03508,10e-6 10.88462,-2.99062 12.69121,-7.0559 17.4931,-41.15239 34.29457,-82.60131 52.03766,-123.64671 0.63329,-1.46492 1.19062,-2.98955 1.19062,-4.67517 v -1.73529 c 0,-5.7676 -4.9748,-10.41073 -11.15436,-10.41074 h -44.02005 v -36.56365 -0.99167 -0.74363 c 0,-2.74382 -1.13481,-5.22523 -2.9807,-7.08122 -1.88637,-2.05635 -4.51382,-3.32951 -7.43003,-3.32951 h -0.74363 -0.99167 -109.80934 v -12.05043 l -0.036,-0.0357 v -10.9616 -1.73529 c 0,-2.83022 -1.1998,-5.38764 -3.1502,-7.26054 -1.8729,-1.95037 -4.4303,-3.1502 -7.2605,-3.1502 h -0.7436 -11.9533 -51.077 -36.3347 -0.9912 z m 12.1461,22.55677 h 25.9234 51.6279 v 12.46228 h 0.01 v 10.57197 0.99167 0.74362 c 0,2.74382 1.1347,5.22534 2.9807,7.08122 1.8864,2.05635 4.5138,3.32952 7.43,3.32952 h 0.7437 0.9916 9.8118 v 0.0134 h 100.02287 v 26.15292 l -155.77087,-5.1e-4 c -3.3363,-1e-5 -6.3128,1.36084 -8.3535,3.51399 l -0,-0.002 -0,0.008 c -11.2826,25.46306 -23.3656,51.95495 -35.4123,78.49909 v -108.1715 h 0 v -22.35987 c 0,-0.0659 0,-0.1313 0.01,-0.19689 h -0.01 z m 50.8149,83.90288 h 198.36831 l -43.08833,102.41028 h -200.79448 c 15.3319,-34.06398 30.1061,-68.38091 45.5145,-102.41028 z"
       sodipodi:nodetypes="scccsccccccscccccssccccscsccccccscscccccscccccccscscccccccccccccscccccccc" /><path
       id="rect1185-1-0"
       style="fill:#0088aa;stroke-width:0.110841;paint-order:markers stroke fill;stop-color:#000000"
       d="m -1065.4121,388.52129 -57.3474,56.52833 h 32.4771 v 56.08495 h 49.7406 v -56.08495 h 32.4771 z" /><g
       id="g711"
       transform="matrix(0.8150705,0,0,0.8150705,59.383499,-172.99452)"
       inkscape:export-filename="..\MD.Journal.Windows\Assets\create.png"
       inkscape:export-xdpi="96"
       inkscape:export-ydpi="96"><path
         id="rect6602-7-3"
         style="opacity:0.2;fill:#ffffff;fill-opacity:1;stroke-width:0.066434;paint-order:markers stroke fill;stop-color:#000000"
         d="m -431.00924,712.56385 c -4.54455,8.7455 5.14444,129.1766 5.14444,129.1766 0,5.10894 4.1133,9.27408 9.22193,9.22195 l 69.53966,-0.70961 c 5.10864,-0.0521 0.78677,-5.00095 0.88398,-10.10897 l 2.30624,-121.1837 c 0.0972,-5.10801 -0.62778,-20.129 -5.63253,-16.69928 -16.46002,11.27996 -45.79181,20.83201 -81.46372,10.30301 z"
         sodipodi:nodetypes="cssssssc" /><path
         id="rect6602-7"
         style="opacity:0.2;fill:#ffffff;fill-opacity:1;stroke-width:0.081507;paint-order:markers stroke fill;stop-color:#000000"
         d="m -303.28565,615.88684 c -5.57565,10.72975 3.6998,169.58552 3.6998,169.58552 0,6.2681 5.04623,11.3143 11.31427,11.3143 h 98.37658 c 6.26804,0 11.31426,-5.0462 11.31426,-11.3143 v -152.3789 c 0,-6.2681 3.57608,-12.83437 -3.86334,-13.08793 z"
         sodipodi:nodetypes="cssssssc" /><path
         id="rect6373-4"
         style="fill:#b3b3b3;fill-opacity:1;stroke-width:0.1;paint-order:markers stroke fill;stop-color:#000000"
         d="m -313.33126,592.40312 c -4.62852,0 -8.70262,2.25188 -11.22206,5.71438 a 83.022736,83.022736 0 0 1 8.51628,32.79489 c 0.29057,1.3024 0.45114,2.64889 0.45114,4.02715 0,1.47741 -0.17908,2.9199 -0.5116,4.30878 a 83.022736,83.022736 0 0 1 -11.11509,37.44784 v 129.9993 0.8661 c 0,7.69017 6.19117,13.88132 13.88133,13.88132 h 144.00878 c 0.24032,0 0.4795,-0.006 0.71675,-0.0181 5.21943,-0.26287 9.66077,-3.38258 11.7998,-7.83467 0.19445,-0.40474 0.36978,-0.82031 0.52503,-1.24592 0.54339,-1.48962 0.83974,-3.10042 0.83974,-4.78265 v -0.8661 -199.54492 -0.8661 c 0,-1.68222 -0.29635,-3.29303 -0.83974,-4.78265 -0.15525,-0.42561 -0.33058,-0.84118 -0.52503,-1.24592 -2.23626,-4.65446 -6.98925,-7.85275 -12.51655,-7.85275 z m 13.88132,28.62822 h 116.24614 v 171.7828 h -116.24614 z" /><path
         id="rect6373-4-7"
         style="fill:#b3b3b3;fill-opacity:1;stroke-width:0.1;paint-order:markers stroke fill;stop-color:#000000"
         d="m -315.60192,634.32045 c 0.007,0.20603 0.016,0.41166 0.016,0.61909 0,1.4723 -0.18084,2.90872 -0.51108,4.29328 a 83.022736,83.022736 0 0 1 -4.76561,23.71586 h 16.92662 v 10.2309 h 0.53588 v -38.85913 z m -132.34283,67.57986 v 146.71249 0.8661 c 0,7.69014 6.19119,13.88132 13.88132,13.88132 h 79.06959 v -28.62874 h -65.18826 v -119.5865 a 83.022736,83.022736 0 0 1 -27.76265,-13.24467 z" /><path
         id="rect6373"
         style="opacity:1;fill:#ffffff;fill-opacity:1;stroke-width:0.1;paint-order:markers stroke fill;stop-color:#000000"
         d="m -322.27077,666.6358 a 83.022736,83.022736 0 0 1 -15.10399,23.93187 c -0.73672,1.1863 -1.60992,2.306 -2.63084,3.32693 -1.02369,1.02368 -2.14573,1.9008 -3.33572,2.63859 a 83.022736,83.022736 0 0 1 -22.28597,14.38156 v 170.01339 0.8661 c 0,7.69017 6.19116,13.88132 13.88132,13.88132 h 144.00878 c 0.24032,0 0.4795,-0.006 0.71675,-0.0181 5.21943,-0.26285 9.66077,-3.38257 11.7998,-7.83466 0.19445,-0.40474 0.36978,-0.82031 0.52503,-1.24592 0.54339,-1.48964 0.83974,-3.10042 0.83974,-4.78265 v -0.8661 -199.54492 -0.8661 c 0,-1.68222 -0.29635,-3.29302 -0.83974,-4.78266 -0.15525,-0.42561 -0.33058,-0.84117 -0.52503,-1.24591 -2.23626,-4.65446 -6.98925,-7.85275 -12.51655,-7.85275 z m -15.59388,28.62822 h 116.24614 v 171.7828 h -116.24614 z" /><path
         id="path499"
         style="fill:#ffcc00;fill-opacity:1;stroke-width:0.0796338;paint-order:markers stroke fill;stop-color:#000000"
         d="m -398.95903,562.57114 c -4.4654,0 -8.06049,3.59509 -8.06049,8.06049 v 32.24144 c 0,4.4654 3.59509,8.05998 8.06049,8.05998 4.4654,0 8.06049,-3.59458 8.06049,-8.05998 v -32.24144 c 0,-4.4654 -3.59509,-8.06049 -8.06049,-8.06049 z m -45.4732,18.82831 c -2.06036,0 -4.12063,0.78958 -5.69939,2.36833 -3.15751,3.15752 -3.15751,8.24127 0,11.39879 l 22.79809,22.79809 c 3.15752,3.15751 8.24127,3.15751 11.39879,0 3.1575,-3.15752 3.1575,-8.24127 0,-11.39879 l -22.79809,-22.79809 c -1.57876,-1.57875 -3.63903,-2.36833 -5.6994,-2.36833 z m 90.94639,0 c -2.06036,0 -4.12115,0.78958 -5.69991,2.36833 l -22.79758,22.79809 c -3.1575,3.15752 -3.1575,8.24127 0,11.39879 3.15752,3.15751 8.24127,3.15751 11.39879,0 l 22.79809,-22.79809 c 3.15751,-3.15752 3.15751,-8.24127 0,-11.39879 -1.57877,-1.57875 -3.63902,-2.36833 -5.69939,-2.36833 z m -109.78193,45.48043 c -4.4654,0 -8.05997,3.59509 -8.05997,8.06049 0,4.4654 3.59457,8.05997 8.05997,8.05997 h 32.24144 c 4.46541,0 8.05997,-3.59457 8.05997,-8.05997 0,-4.4654 -3.59456,-8.06049 -8.05997,-8.06049 z m 96.37603,0 c -4.4654,0 -8.05997,3.59509 -8.05997,8.06049 0,4.4654 3.59457,8.05997 8.05997,8.05997 h 32.24144 c 4.4654,0 8.05997,-3.59457 8.05997,-8.05997 0,-4.4654 -3.59457,-8.06049 -8.05997,-8.06049 z m -54.7424,22.66787 c -2.06036,0 -4.12063,0.78958 -5.69939,2.36833 l -22.79809,22.79757 c -3.15751,3.15751 -3.15751,8.2418 0,11.39931 3.15751,3.1575 8.24127,3.1575 11.39879,0 l 22.79809,-22.7981 c 3.1575,-3.15751 3.1575,-8.24127 0,-11.39878 -1.57876,-1.57875 -3.63904,-2.36833 -5.6994,-2.36833 z m 45.35021,0 c -2.06036,0 -4.12064,0.78958 -5.6994,2.36833 -3.1575,3.15751 -3.1575,8.24127 0,11.39878 l 22.79758,22.7981 c 3.15751,3.1575 8.24179,3.1575 11.3993,0 3.15751,-3.15751 3.15751,-8.2418 0,-11.39931 l -22.79809,-22.79757 c -1.57877,-1.57875 -3.63904,-2.36833 -5.69939,-2.36833 z m -22.6751,9.39942 c -4.4654,0 -8.06049,3.59511 -8.06049,8.06049 v 32.24144 c 0,4.4654 3.59509,8.05998 8.06049,8.05998 4.4654,0 8.06049,-3.59458 8.06049,-8.05998 v -32.24144 c 0,-4.46538 -3.59509,-8.06049 -8.06049,-8.06049 z" /><path
         id="rect6602"
         style="opacity:0.25;fill:#ffffff;fill-opacity:1;stroke-width:0.1;paint-order:markers stroke fill;stop-color:#000000"
         d="m -325.33001,673.17958 a 83.022736,83.022736 0 0 1 -29.66383,32.11845 v 168.71425 c 0,7.69019 6.19115,13.88133 13.88133,13.88133 h 120.69702 c 7.69018,0 13.88133,-6.19114 13.88133,-13.88133 V 687.06039 c 0,-7.69018 -6.19115,-13.88081 -13.88133,-13.88081 z" /></g><g
       id="g716"
       transform="translate(-45.950722,-335.34283)"
       inkscape:export-filename="..\MD.Journal.Windows\Assets\open.png"
       inkscape:export-xdpi="96"
       inkscape:export-ydpi="96"><path
         id="path4433-2"
         style="opacity:0.4;fill:#ffcc00;fill-opacity:1;stroke-width:0.216311;paint-order:markers stroke fill;stop-color:#000000"
         d="m 136.37049,786.22333 c -3.81718,0.29541 -5.61061,5.18998 -5.05137,3.99355 -15.68932,34.70464 -30.76363,69.61138 -46.328442,104.22827 a 6.2567973,6.2567973 0 0 0 5.705078,8.82271 H 293.82703 a 6.2567973,6.2567973 0 0 0 5.76554,-3.83025 c 14.65991,-34.84228 29.31923,-69.68475 43.97819,-104.52747 a 6.2567973,6.2567973 0 0 0 -5.76554,-8.68164 h -90.21465 v 29.22508 a 11.364569,11.364569 0 0 1 -11.36313,11.36365 H 186.48526 A 11.364569,11.364569 0 0 1 175.12161,815.45358 V 786.2285 h -37.96099 c -0.27237,-0.0244 -0.53565,-0.0249 -0.79013,-0.005 z" /><path
         id="rect585-9-5"
         style="fill:#ffcc00;fill-opacity:1;stroke-width:0.1;paint-order:markers stroke fill;stop-color:#000000"
         d="m 74.590796,687.08313 c -2.757007,0 -5.249802,1.14536 -7.10861,3.00705 -0.0485,0.0448 -0.09399,0.0919 -0.141594,0.13746 -0.0529,0.055 -0.107383,0.10767 -0.159163,0.16381 -1.858368,1.85817 -3.001884,4.34816 -3.001884,7.10241 v 0.74362 0.99167 33.45843 1.73529 169.94105 c -0.682069,4.65045 0.55362,8.37937 3.001367,10.83758 1.885148,2.04374 4.503767,3.30884 7.409884,3.30884 h 1.152901 0.581877 221.765276 c 6.03507,10e-6 10.88463,-2.99062 12.69121,-7.0559 17.49309,-41.15235 34.29458,-82.60135 52.03765,-123.64671 0.63329,-1.46492 1.19063,-2.98955 1.19063,-4.67517 v -1.73529 c 0,-5.7676 -4.9748,-10.41073 -11.15436,-10.41074 h -44.02005 v -36.56366 -0.99167 -0.74362 c 0,-2.74382 -1.13481,-5.22524 -2.9807,-7.08122 -1.88637,-2.05635 -4.51383,-3.32952 -7.43003,-3.32952 h -0.74363 -0.99167 -49.42747 l 22.88387,22.55677 h 16.13287 v 26.15292 h -38.6886 v 22.55625 h 88.32949 L 292.83174,895.95306 H 92.037276 C 107.3691,861.88912 122.1434,827.57211 137.55181,793.54278 h 37.5698 v -22.55677 h -44.6133 c -3.33631,-10e-6 -6.31281,1.36085 -8.35349,3.514 l -0.002,-0.002 -0.004,0.008 c -11.28256,25.46303 -23.365594,51.95497 -35.412312,78.49908 V 744.83361 h 0.0041 v -22.35988 c 0,-0.0659 0.0022,-0.1313 0.0052,-0.19689 h -0.0083 l -5.16e-4,-12.63695 h 25.923488 51.62785 v 12.46229 h 0.0103 v 10.57196 0.59428 l 22.58208,-22.25911 v -0.78289 l -0.0357,-0.0362 v -10.96109 -1.73529 c 0,-2.83022 -1.19984,-5.38764 -3.1502,-7.26054 -1.87291,-1.95037 -4.43031,-3.15019 -7.26054,-3.15019 h -0.7437 -11.95328 -51.07698 -36.334736 -0.991154 z" /><path
         id="rect1185-1-0-5"
         style="fill:#00ccff;stroke-width:0.110841;paint-order:markers stroke fill;stop-color:#000000"
         d="m 211.35612,702.83977 -57.3474,56.52833 h 32.47708 v 56.08495 h 49.74064 V 759.3681 h 32.47708 z" /></g><g
       id="g3933"
       transform="matrix(0.70254813,0,0,0.70254813,-544.90675,422.23538)"
       inkscape:export-filename="..\MD.Journal.Windows\Assets\journal.png"
       inkscape:export-xdpi="96"
       inkscape:export-ydpi="96"><path
         id="rect2731"
         style="fill:#ffffff;fill-opacity:0.25098;stroke-width:0.1;paint-order:markers stroke fill;stop-color:#000000"
         d="m 204.08056,258.47451 c -4.30491,0 -7.77059,3.46569 -7.77059,7.77058 v 60.99886 h 20.90725 c 5.75751,-7.87096 15.28524,-12.98272 25.07031,-12.98422 a 8.1616447,8.1616447 0 0 1 0.002,0 c 8.0967,-1.9e-4 16.14348,3.33132 21.86895,9.0563 5.72548,5.72498 9.05786,13.77277 9.05836,21.86947 2e-4,8.09713 -3.33282,16.14341 -9.05836,21.86894 -5.72554,5.72554 -13.77181,9.05908 -21.86895,9.05888 a 8.1616447,8.1616447 0 0 1 -0.002,0 c -9.78507,-10e-4 -19.3128,-5.11377 -25.07031,-12.98473 h -20.90725 v 37.72276 h 20.90725 c 5.75751,-7.87096 15.28524,-12.98272 25.07031,-12.98422 a 8.1616447,8.1616447 0 0 1 0.002,0 c 8.09714,-2e-4 16.14341,3.33282 21.86895,9.05836 5.72554,5.72554 9.05856,13.77233 9.05836,21.86947 2e-4,8.09713 -3.33282,16.14341 -9.05836,21.86895 -5.72554,5.72553 -13.77181,9.05855 -21.86895,9.05836 a 8.1616447,8.1616447 0 0 1 -0.002,0 c -9.78544,-0.002 -19.31318,-5.11461 -25.07031,-12.98629 h -20.90725 v 37.72483 h 20.90725 c 5.75751,-7.87095 15.28524,-12.98272 25.07031,-12.98422 a 8.1616447,8.1616447 0 0 1 0.002,0 c 8.0967,-2e-4 16.14348,3.33131 21.86895,9.05629 5.72547,5.72499 9.05786,13.77278 9.05836,21.86947 2e-4,8.09713 -3.33282,16.14341 -9.05836,21.86895 -5.72554,5.72554 -13.77181,9.05907 -21.86895,9.05888 a 8.1616447,8.1616447 0 0 1 -0.002,0 c -9.78507,-0.001 -19.3128,-5.11378 -25.07031,-12.98474 h -20.90725 v 65.90606 c 0,4.30489 3.46568,7.77058 7.77059,7.77058 h 65.56499 l 13.60072,-47.95263 130.6406,-128.96474 V 266.24509 c 0,-4.30489 -3.46569,-7.77058 -7.77058,-7.77058 z" /><path
         id="path795"
         style="fill:#ffcc00;fill-opacity:1;stroke-width:0.0316295;paint-order:markers stroke fill;stop-color:#000000"
         d="m 242.28908,322.41894 a 22.767033,22.767033 0 0 0 -20.5543,12.98474 h -50.20262 c -5.41959,0 -9.78235,4.36276 -9.78235,9.78234 0,5.41957 4.36276,9.78287 9.78235,9.78287 h 50.20262 a 22.767033,22.767033 0 0 0 20.5543,12.98422 22.767033,22.767033 0 0 0 22.76708,-22.76709 22.767033,22.767033 0 0 0 -22.76708,-22.76708 z m 0,73.60843 a 22.767033,22.767033 0 0 0 -20.5543,12.98422 h -50.20262 c -5.41959,0 -9.78235,4.36326 -9.78235,9.78286 0,5.4195 4.36276,9.78235 9.78235,9.78235 h 50.20262 a 22.767033,22.767033 0 0 0 20.5543,12.98474 22.767033,22.767033 0 0 0 22.76708,-22.76709 22.767033,22.767033 0 0 0 -22.76708,-22.76708 z m 0,73.60842 a 22.767033,22.767033 0 0 0 -20.5543,12.98422 h -50.20262 c -5.41959,0 -9.78235,4.36328 -9.78235,9.78287 0,5.41959 4.36276,9.78235 9.78235,9.78235 h 50.20262 a 22.767033,22.767033 0 0 0 20.5543,12.98474 22.767033,22.767033 0 0 0 22.76708,-22.76709 22.767033,22.767033 0 0 0 -22.76708,-22.76709 z" /><path
         id="rect1141"
         style="fill:#ffcc00;fill-opacity:1;stroke-width:0.1;paint-order:markers stroke fill;stop-color:#000000"
         d="m 198.04785,241.70706 a 19.733236,19.733236 0 0 0 -19.71301,19.528 h -0.0202 v 14.00793 51.41289 h 33.53645 v -51.41289 h 184.26627 v 149.2958 l 4.29948,-4.29844 c 6.44796,-6.44792 15.0939,-9.80646 23.63474,-9.80664 1.87065,-4e-5 3.74528,0.1709 5.60172,0.49041 V 261.88825 h -0.0439 a 19.733236,19.733236 0 0 0 0.0439,-0.44803 19.733236,19.733236 0 0 0 -19.73316,-19.73316 19.733236,19.733236 0 0 0 -0.76533,0.0754 v -0.0754 H 211.85114 198.50725 v 0.0455 a 19.733236,19.733236 0 0 0 -0.4594,-0.0455 z m -19.73316,122.0096 v 36.54713 h 33.53645 v -36.54713 z m 0,73.6074 v 36.54867 h 33.53645 v -36.54867 z m 0,73.60946 v 51.41288 14.08493 h 0.0279 a 19.733236,19.733236 0 0 0 19.70526,19.45152 19.733236,19.733236 0 0 0 0.41289,-0.0408 v 0.0408 h 13.3904 54.86642 l 9.18445,-33.53645 h -64.05087 v -51.41288 z m 251.33866,15.7334 -69.21541,69.21593 H 409.899 v -0.002 a 19.733236,19.733236 0 0 0 0.0212,0.002 19.733236,19.733236 0 0 0 19.73213,-19.72231 h 10e-4 z" /><path
         id="rect1211"
         style="fill:#00ccff;fill-opacity:1;stroke-width:0.1;paint-order:markers stroke fill;stop-color:#000000"
         d="m 436.19687,431.72847 c -6.7289,-6.72889 -17.56304,-6.72852 -24.29194,3.7e-4 l -15.61641,15.61641 44.53551,44.53551 15.61641,-15.61641 c 6.72889,-6.7289 6.7289,-17.56341 10e-6,-24.2923 z m -51.783,27.49143 -75.47896,75.47896 44.53551,44.53551 75.47896,-75.47896 z m -86.28369,86.65276 -6.72277,25.08815 25.8007,25.8007 25.08815,-6.72277 z m -11.3671,42.42235 -4.79926,17.91008 17.91009,-4.79925 z" /></g></g></svg>
